<svg xmlns="http://www.w3.org/2000/svg" viewBox="0 0 82.42 85.43"><defs><style>.cls-1{fill:#fff;}</style></defs><g id="Layer_2" data-name="Layer 2"><g id="Layer_7" data-name="Layer 7"><path class="cls-1" d="M56.23,52.93c.92.9,8.3-3.54,9.52-4.44V27L27.06,7.09c-.21-.27.72-.76,1-.91C29.41,5.32,39.7.11,40.64,0a2.84,2.84,0,0,1,1.72.32C53.91,6.82,66.46,11.65,78.06,18c2.68,1.46,3.72,1.34,4,4.73-.47,7.1-.11,14.23.13,21.34.12,3.57.23,7.14.19,10.72,0,3.29.13,6.92-.86,10.09a1.58,1.58,0,0,1-.28.6,1.69,1.69,0,0,1-.59.39C70.32,70.86,60,76,49.65,81l-6.47,3.17c-.28.14-2.25,1.39-2.54,1.24L9.34,69.77,1.78,66C-.5,64.85.43,59,.36,56.87.23,53,.14,49.08.08,45.19Q0,38.14,0,31.08,0,27.54.08,24c0-1.65-.33-3.8,1.41-4.78l15.06-7.47,1,0L56.23,31.89Z"/></g></g></svg>