<svg xmlns="http://www.w3.org/2000/svg" viewBox="0 0 77.56 108.34"><defs><style>.cls-1{fill:#fff;}</style></defs><g id="Layer_2" data-name="Layer 2"><g id="Layer_5" data-name="Layer 5"><path class="cls-1" d="M56.39,4.13c1.48,1.89,3.07,6.22,4.88,7.55s8,2.26,8.72,3.44l1.06,9,6.49,6.7c-.22,2.73-3.06,6.86-2.9,9.39.12,1.84,3.19,7,2.9,8.47l-6.49,6.7L70,64.4c-.7,1.2-7,2.17-8.72,3.44S58,73.51,56.5,75.25c-3.4,1-6.81-.94-10.21-.16-2.1.48-4.9,3.72-7.2,4.4-1.81.34-5.76-3.93-7.82-4.4-3.4-.78-6.81,1.21-10.21.16-1.47-1.74-3.11-6.16-4.76-7.41s-8-2.24-8.73-3.44l-1.05-9L0,48.69c-.29-1.48,2.79-6.63,2.9-8.47C3.08,37.69.24,33.56,0,30.83l6.5-6.7,1.05-9c.69-1.18,7-2.18,8.73-3.44S19.69,6,21.17,4.13c1.73-1,7.56,1.12,9.6.79,1.34-.21,6-4.25,7.7-4.91,1.4-.3,6.83,4.68,8.32,4.91C48.83,5.25,54.66,3.12,56.39,4.13ZM34.7,12.64C13.33,15.22,4,42.51,18.41,58.31,31.62,72.74,56.24,69,63.92,50.9,72.47,30.68,56.27,10,34.7,12.64Z"/><path class="cls-1" d="M36.33,85.65l-6.81,22.69-12-9.42L2,99.33,10,72.9c2.76-1.9,6.11,8.18,8.24,9.4l10.89-.88Z"/><path class="cls-1" d="M67.56,72.9l8,26.43-15.48-.41-12,9.42L41.23,85.65l7.2-4.23,10.89.88C61.45,81.08,64.8,71,67.56,72.9Z"/><path class="cls-1" d="M35.22,19c23.13-3.17,33.7,26.69,15.1,38.43C33,68.34,11.81,51.34,19.22,32.09,21.7,25.66,28.31,19.92,35.22,19Z"/></g></g></svg>