<svg xmlns="http://www.w3.org/2000/svg" viewBox="0 0 80.05 80.24"><defs><style>.cls-1{fill:#fff;}</style></defs><g id="Layer_2" data-name="Layer 2"><g id="Layer_5" data-name="Layer 5"><path class="cls-1" d="M14.28.1a8.52,8.52,0,0,1,6.17,1.47C22.65,3.15,31.26,11.83,33,14.07a7.22,7.22,0,0,1,.74,8.19c-2,4.09-7.67,3.15-9,8.23-2,7.71,9.31,19,15.47,22.51,3.9,2.2,7.77,3.78,11.76.78,2.65-2,2.34-5.11,5.1-7a7.22,7.22,0,0,1,8.78.17c1.79,1.29,11.75,11.21,12.89,12.93C81.05,63.32,80.06,67,77.6,70c-3.12,3.85-9,9.68-14.1,10.15-17,1.57-41.9-21.44-51.4-34.27C6.22,38-2.7,22.82.78,12.82,1.44,10.94,9.21,2.9,11.06,1.57A8.72,8.72,0,0,1,14.28.1Z"/></g></g></svg>