<svg xmlns="http://www.w3.org/2000/svg" viewBox="0 0 75.84 72.35"><defs><style>.cls-1{fill:#fff;}</style></defs><g id="Layer_2" data-name="Layer 2"><g id="Layer_5" data-name="Layer 5"><path class="cls-1" d="M68.24,25.19c7.29.78,10.36,8.67,4.6,13.53,1.12,2.44,1.75,4.79.84,7.44-.43,1.26-2.14,2.89-2.25,3.32-.17.68.89,2.26,1,3.28a8.07,8.07,0,0,1-2.88,7.42,7.63,7.63,0,0,1-5.07,11.93c-10.41-.74-22.93,1.53-33-1a56.17,56.17,0,0,1-8.49-3c-.32-.19-.67-.28-.78-.7l0-38.31,14.81-17C38.42,5.9,34.11-2.3,44.39.6c5,1.4,8.67,6.49,9.2,11.52s-1.26,8.42-2.18,13.07C56.78,25.61,63,24.63,68.24,25.19Z"/><rect class="cls-1" y="24.08" width="17.75" height="46.58"/></g></g></svg>