<svg xmlns="http://www.w3.org/2000/svg" viewBox="0 0 179.05 32.63"><defs><style>.cls-1{fill:#ffcf32;}</style></defs><g id="Layer_2" data-name="Layer 2"><g id="Layer_1-2" data-name="Layer 1"><polygon class="cls-1" points="33.75 12.46 20.86 12.46 16.88 0 12.89 12.46 0 12.46 10.43 20.16 6.45 32.63 16.88 24.92 27.3 32.63 23.32 20.16 33.75 12.46"/><polygon class="cls-1" points="70.07 12.46 57.18 12.46 53.2 0 49.22 12.46 36.32 12.46 46.75 20.16 42.77 32.63 53.2 24.92 63.63 32.63 59.65 20.16 70.07 12.46"/><polygon class="cls-1" points="106.4 12.46 93.51 12.46 89.52 0 85.54 12.46 72.65 12.46 83.08 20.16 79.09 32.63 89.52 24.92 99.95 32.63 95.97 20.16 106.4 12.46"/><polygon class="cls-1" points="142.72 12.46 129.83 12.46 125.85 0 121.86 12.46 108.97 12.46 119.4 20.16 115.42 32.63 125.85 24.92 136.28 32.63 132.29 20.16 142.72 12.46"/><polygon class="cls-1" points="179.05 12.46 166.16 12.46 162.17 0 158.19 12.46 145.3 12.46 155.72 20.16 151.74 32.63 162.17 24.92 172.6 32.63 168.62 20.16 179.05 12.46"/></g></g></svg>