<svg xmlns="http://www.w3.org/2000/svg" viewBox="0 0 68.05 69.95"><defs><style>.cls-1{fill:#fff;}.cls-2{fill:#004d28;}</style></defs><g id="Layer_5" data-name="Layer 5"><path class="cls-1" d="M68.05,34.13a31.22,31.22,0,0,1-.15,3.21c-1.51,16.37-14.41,31-30.41,31A27.11,27.11,0,0,1,34,68.16C16.15,65.9,0,52.92,0,34.13S15.27-1,34,.1C51.9,1.16,68.05,15.34,68.05,34.13Zm-13.21,7V27.09a7,7,0,0,0-7-7H20.21a7,7,0,0,0-7,7V41.17a7,7,0,0,0,7,7H47.85A7,7,0,0,0,54.84,41.17Z"/><path class="cls-2" d="M54.84,27.09V41.17a7,7,0,0,1-7,7H20.21a7,7,0,0,1-7-7V27.09a7,7,0,0,1,7-7H47.85A7,7,0,0,1,54.84,27.09Zm-24.72,13,9.87-6-9.87-6Z"/><polygon class="cls-1" points="39.99 34.13 30.12 40.09 30.12 28.16 39.99 34.13"/></g></svg>