<svg xmlns="http://www.w3.org/2000/svg" viewBox="0 0 68.58 69.95"><defs><style>.cls-1{fill:#fff;}.cls-2{fill:#004d28;}</style></defs><g id="Layer_5" data-name="Layer 5"><path class="cls-1" d="M68.22,34.2a33.36,33.36,0,0,1-.36,4.93,34,34,0,0,1-31.37,29c-.76,0-1.52.08-2.3.08-18.79,0-32-15.34-34-34-2.06-19,15.24-34,34-34A34,34,0,0,1,68.22,34.2ZM52.07,30.87V23.18c-10.39.24-9.84-9.66-9.84-9.66h-7.4V42.3c0,6.05-11.3,7.14-11.3.31,0-7.33,7.51-6.72,7.51-6.72V28.74c-11.67,0-14.72,8.37-14.72,13s1.83,13.2,13.14,13.2S42.35,44.5,42.35,44.5V27.76C45.81,30.86,52,30.87,52.07,30.87Z"/><path class="cls-2" d="M52.07,23.18v7.69c-.08,0-6.26,0-9.72-3.11V44.5S40.76,54.89,29.46,54.89s-13.14-8.61-13.14-13.2S19.37,28.74,31,28.74v7.15s-7.51-.61-7.51,6.72c0,6.83,11.3,5.74,11.3-.31V13.52h7.4S41.68,23.42,52.07,23.18Z"/></g></svg>