<svg xmlns="http://www.w3.org/2000/svg" viewBox="0 0 67.04 69.3"><defs><style>.cls-1{fill:#fff;}.cls-2{fill:#004d28;}</style></defs><g id="Layer_5" data-name="Layer 5"><path class="cls-1" d="M67,33.81c0,.14,0,.26,0,.4s0,.21,0,.32h0c0,.2,0,.39,0,.58A33.38,33.38,0,0,1,34.61,67.59H33.48A33.83,33.83,0,0,1,28,67.15l-.14,0c-.4-.07-.81-.14-1.21-.23l-.81-.18c-.18,0-.35-.07-.52-.12-.36-.08-.72-.18-1.08-.28L24,66.25l-1.24-.38-.05,0c-.43-.14-.85-.29-1.26-.44h0l-1.18-.46a.2.2,0,0,0-.08,0c-.37-.15-.74-.32-1.11-.49l-.13,0-.95-.47-.26-.13-.77-.41-.42-.22-.56-.33-.59-.35L15,62.24l-.81-.52-.07,0a31.73,31.73,0,0,1-13-17.53,28.44,28.44,0,0,1-.76-3.53s0,0,0-.08c0-.34-.09-.67-.12-1a2,2,0,0,1,0-.24c0-.31-.06-.63-.08-1,0-.1,0-.2,0-.3,0-.34,0-.68,0-1a2,2,0,0,0,0-.25c0-.42,0-.83,0-1.24v0c0-.43,0-.86.07-1.29s.08-1,.14-1.49c0-.14,0-.27.05-.41,0-.35.09-.7.14-1.07C.58,30.16.79,29.09,1,28c0-.05,0-.1,0-.16.23-1,.5-2,.8-2.94.12-.38.25-.76.38-1.13l.06-.18.27-.72.23-.6L3,21.78c.11-.26.22-.53.33-.78l.15-.34c.15-.32.29-.63.45-.95L4,19.59C9.32,8.74,19.48,1.34,32.1.84q.69,0,1.38,0h.17A33.4,33.4,0,0,1,57.54,10.88l.1.11A33.3,33.3,0,0,1,67,33.81l-.17.24h0Zm-14.19,9V25.46A10.7,10.7,0,0,0,42.16,14.77H24.81A10.7,10.7,0,0,0,14.12,25.46V42.81A10.7,10.7,0,0,0,24.81,53.5H42.16A10.7,10.7,0,0,0,52.85,42.81Z"/><path class="cls-2" d="M52.85,25.46V42.81A10.7,10.7,0,0,1,42.16,53.5H24.81A10.7,10.7,0,0,1,14.12,42.81V25.46A10.7,10.7,0,0,1,24.81,14.77H42.16A10.7,10.7,0,0,1,52.85,25.46ZM49.41,42.81V25.46a7.26,7.26,0,0,0-7.25-7.25H24.81a7.26,7.26,0,0,0-7.25,7.25V42.81a7.26,7.26,0,0,0,7.25,7.25H42.16A7.26,7.26,0,0,0,49.41,42.81Z"/><path class="cls-1" d="M49.41,25.46V42.81a7.26,7.26,0,0,1-7.25,7.25H24.81a7.26,7.26,0,0,1-7.25-7.25V25.46a7.26,7.26,0,0,1,7.25-7.25H42.16A7.26,7.26,0,0,1,49.41,25.46Zm-3-1.7A2.54,2.54,0,0,0,45.66,22a2.5,2.5,0,0,0-1.78-.74,2.52,2.52,0,1,0,2.52,2.52ZM43.47,34.13a10,10,0,1,0-10,10A10,10,0,0,0,43.47,34.13Z"/><path class="cls-2" d="M45.66,22a2.51,2.51,0,1,1-1.78-.74A2.5,2.5,0,0,1,45.66,22Z"/><path class="cls-2" d="M33.48,24.16a10,10,0,1,1-10,10A10,10,0,0,1,33.48,24.16Zm6.55,10a6.55,6.55,0,1,0-6.55,6.55A6.56,6.56,0,0,0,40,34.13Z"/><path class="cls-1" d="M33.48,27.59a6.55,6.55,0,1,1-6.54,6.54A6.56,6.56,0,0,1,33.48,27.59Z"/></g></svg>