<svg xmlns="http://www.w3.org/2000/svg" viewBox="0 0 68.05 68.05"><defs><style>.cls-1{fill:#fff;}.cls-2{fill:#004d28;}</style></defs><g id="Layer_5" data-name="Layer 5"><path class="cls-1" d="M68.05,34.06a35.38,35.38,0,0,1-.4,5.28A34,34,0,0,1,0,34.06C0,15.26,15.37,2.25,34,0,53.37-2.28,68.05,15.26,68.05,34.06Zm-25.68,0,.71-6.68h-6V24c0-1.72.15-2.66,2.64-2.66H43V14.69H37.69c-6.41,0-7.89,3.3-7.89,8.76v3.92H25v6.67h4.84V53.42h7.25V34.05Z"/><path class="cls-2" d="M43.08,27.37l-.71,6.68H37.06V53.42H29.81V34.05H25V27.38h4.84V23.45c0-5.46,1.48-8.76,7.89-8.76H43v6.68H39.7c-2.49,0-2.64.94-2.64,2.66v3.34Z"/></g></svg>